<svg width="196" height="33" viewBox="0 0 196 33" fill="none" xmlns="http://www.w3.org/2000/svg">
<path d="M23.652 22.7498C23.652 24.3119 23.358 25.6939 22.7699 26.896C22.1818 28.0909 21.3858 29.0771 20.3889 29.8545C19.2056 30.7831 17.9147 31.4453 16.5019 31.8412C15.0891 32.2371 13.2962 32.4315 11.1232 32.4315H0V0.953613H9.28725C11.575 0.953613 13.289 1.03999 14.4221 1.20555C15.5624 1.37111 16.6453 1.73102 17.6852 2.26369C18.8327 2.87554 19.6718 3.64575 20.1953 4.60311C20.7117 5.55328 20.977 6.6906 20.977 8.01507C20.977 9.51231 20.5969 10.7792 19.8367 11.8301C19.0765 12.8811 18.0653 13.7233 16.8031 14.3567V14.5295C18.9259 14.9686 20.5969 15.8971 21.8161 17.3296C23.0424 18.7548 23.652 20.5616 23.652 22.7498ZM16.6382 8.56214C16.6382 7.80633 16.5091 7.15849 16.2581 6.64021C16.0071 6.12194 15.5983 5.69725 15.0389 5.37333C14.3791 4.99182 13.5759 4.76148 12.6364 4.6679C11.6969 4.57432 10.5279 4.53113 9.13665 4.53113H4.17389V13.6225H9.56695C10.8722 13.6225 11.9121 13.5577 12.6866 13.4209C13.454 13.2842 14.1711 13.0106 14.8381 12.5859C15.4979 12.1685 15.964 11.6214 16.2366 10.9448C16.5019 10.2681 16.6382 9.47632 16.6382 8.56214ZM19.3132 22.9154C19.3132 21.6485 19.1267 20.6408 18.7466 19.8922C18.3665 19.1435 17.6781 18.5101 16.6812 17.9918C16.0071 17.6391 15.1895 17.4088 14.2285 17.308C13.2675 17.2 12.0985 17.1496 10.7216 17.1496H4.17389V28.8611H9.69604C11.5248 28.8611 13.0165 28.7676 14.1855 28.5732C15.3473 28.3861 16.3083 28.0333 17.047 27.5295C17.8358 26.9752 18.4096 26.349 18.7753 25.6435C19.1339 24.9381 19.3132 24.0311 19.3132 22.9154Z" fill="#47093E"/>
<path d="M50.2373 32.4315H29.5758V0.953613H50.2373V4.6751H33.7425V13.3058H50.2373V17.0273H33.7425V28.7172H50.2373V32.4315Z" fill="#47093E"/>
<path d="M80.8457 32.4315H76.6719V17.0201H61.0234V32.4315H56.8495V0.953613H61.0234V13.2986H76.6719V0.953613H80.8457V32.4315Z" fill="#47093E"/>
<path d="M114 32.4315H109.554L106.477 23.6568H92.9155L89.8389 32.4315H85.6077L97.0249 0.953613H102.583L114 32.4315ZM105.193 20.0649L99.6999 4.61031L94.1849 20.0649H105.193Z" fill="#47093E"/>
<path d="M139.273 10.4697C139.273 11.8661 139.029 13.1546 138.549 14.3495C138.061 15.5372 137.387 16.5738 136.519 17.4448C135.436 18.5317 134.16 19.3451 132.682 19.885C131.205 20.432 129.347 20.6984 127.103 20.6984H122.929V32.4315H118.755V0.953613H127.268C129.154 0.953613 130.746 1.11197 132.051 1.4287C133.356 1.74542 134.518 2.2421 135.529 2.91873C136.72 3.72493 137.645 4.72548 138.298 5.92039C138.943 7.1153 139.273 8.63412 139.273 10.4697ZM134.934 10.5704C134.934 9.48351 134.74 8.54055 134.368 7.73434C133.987 6.93534 133.414 6.2731 132.639 5.76923C131.965 5.33014 131.198 5.02061 130.33 4.82626C129.469 4.63911 128.372 4.54553 127.053 4.54553H122.922V17.128H126.443C128.128 17.128 129.498 16.9769 130.552 16.6745C131.606 16.3722 132.46 15.8899 133.12 15.2277C133.779 14.5511 134.246 13.8384 134.518 13.0898C134.798 12.3412 134.934 11.499 134.934 10.5704Z" fill="#47093E"/>
<path d="M166.97 0.953487L155.051 27.443C154.57 28.5155 154.011 29.3937 153.358 30.0847C152.705 30.7758 151.995 31.3084 151.242 31.6899C150.511 32.0426 149.808 32.2802 149.127 32.4025C148.445 32.5177 147.793 32.5825 147.155 32.5825C146.595 32.5825 145.914 32.5537 145.111 32.4961C144.307 32.4385 143.798 32.4026 143.569 32.3954V28.4795H143.863C144.078 28.5083 144.429 28.5515 144.917 28.6163C145.405 28.6811 145.971 28.7099 146.602 28.7099C146.882 28.7099 147.277 28.6883 147.786 28.6451C148.288 28.6019 148.74 28.5011 149.134 28.3499C149.586 28.1772 150.03 27.9109 150.468 27.5437C150.913 27.1766 151.285 26.644 151.594 25.9385L152.354 24.2686L140.686 0.946289H145.297L154.462 19.5105L162.674 0.946289H166.97V0.953487Z" fill="#47093E"/>
<path d="M195.534 30.1496C194.76 30.4879 194.064 30.8046 193.44 31.0997C192.816 31.3948 191.999 31.7044 190.988 32.0283C190.127 32.2946 189.202 32.525 188.198 32.7193C187.194 32.9065 186.089 33.0072 184.884 33.0072C182.611 33.0072 180.538 32.6833 178.681 32.0427C176.824 31.402 175.203 30.3943 173.826 29.0266C172.478 27.6878 171.423 25.989 170.67 23.9231C169.91 21.8572 169.53 19.4602 169.53 16.7249C169.53 14.1335 169.896 11.8157 170.627 9.77137C171.359 7.72708 172.406 5.9995 173.79 4.58865C175.124 3.22099 176.738 2.17724 178.624 1.45742C180.517 0.737597 182.611 0.377686 184.913 0.377686C186.599 0.377686 188.277 0.586434 189.955 0.989535C191.633 1.39983 193.498 2.11966 195.549 3.149V8.11578H195.233C193.505 6.66174 191.791 5.6108 190.091 4.94856C188.391 4.28632 186.57 3.9552 184.641 3.9552C183.049 3.9552 181.621 4.21434 180.352 4.72541C179.083 5.24369 177.95 6.04269 176.953 7.12242C175.984 8.18056 175.231 9.51943 174.686 11.1318C174.141 12.7442 173.876 14.6086 173.876 16.7249C173.876 18.9419 174.17 20.8422 174.772 22.4331C175.368 24.0311 176.142 25.3267 177.082 26.3273C178.064 27.371 179.212 28.1412 180.524 28.6451C181.837 29.149 183.221 29.3937 184.684 29.3937C186.692 29.3937 188.571 29.0482 190.328 28.3572C192.085 27.6662 193.727 26.6296 195.255 25.2476H195.549V30.1496H195.534Z" fill="#47093E"/>
</svg>
