<svg width="35" height="24" viewBox="0 0 35 24" fill="none" xmlns="http://www.w3.org/2000/svg">
<path d="M1.01123 2.88758C3.68229 2.08683 7.99934 1.23384 11.1614 2.08126C15.9218 3.35702 19.9498 7.47939 26.9646 6.19495C29.7725 5.6808 32.1494 4.76424 33.9793 3.82775" stroke="#47093E" stroke-width="2"/>
<path d="M1.01123 10.6896C3.68229 9.88883 7.99934 9.03584 11.1614 9.88326C15.9218 11.159 19.9498 15.2814 26.9646 13.997C29.7725 13.4828 32.1494 12.5662 33.9793 11.6297" stroke="#47093E" stroke-width="2"/>
<path d="M1.01123 18.4916C3.68229 17.6908 7.99934 16.8378 11.1614 17.6853C15.9218 18.961 19.9498 23.0834 26.9646 21.799C29.7725 21.2848 32.1494 20.3682 33.9793 19.4317" stroke="#47093E" stroke-width="2"/>
</svg>
